<svg xmlns="http://www.w3.org/2000/svg" xmlns:xlink="http://www.w3.org/1999/xlink" width="40" zoomAndPan="magnify" viewBox="0 0 150 149.999998" height="40" preserveAspectRatio="xMidYMid meet" version="1.0">
  <defs>
    <clipPath id="5963f063f6">
      <path d="M 27.945312 27.945312 L 122.054688 27.945312 L 122.054688 122.054688 L 27.945312 122.054688 Z M 27.945312 27.945312 " clip-rule="nonzero" />
    </clipPath>
    <clipPath id="b427ea0645">
      <path d="M 75 27.945312 C 49.011719 27.945312 27.945312 49.011719 27.945312 75 C 27.945312 100.988281 49.011719 122.054688 75 122.054688 C 100.988281 122.054688 122.054688 100.988281 122.054688 75 C 122.054688 49.011719 100.988281 27.945312 75 27.945312 " clip-rule="nonzero" />
    </clipPath>
  </defs>
    <g clip-path="url(#5963f063f6)">
        <g clip-path="url(#b427ea0645)">
        <path fill="#74583e" d="M 27.945312 27.945312 L 122.054688 27.945312 L 122.054688 122.054688 L 27.945312 122.054688 Z M 27.945312 27.945312 " fill-opacity="1" fill-rule="nonzero" />
        <!-- <animate attributeType="CSS" attributeName="fill"
           from="black" to="red" dur="1s" repeatCount="indefinite" />
        </g> -->
    </g>
    <g>
        <animate attributeType="CSS" attributeName="opacity"
           from="1" to="0" dur="1s" repeatCount="indefinite" />
        <path stroke-linecap="butt" transform="matrix(0.000000000000000046, 0.752744, -0.75, 0.000000000000000046, 76.496942, 127.578964)" fill="none" stroke-linejoin="miter" d="M -0.0011148 2.001131 L 29.899892 2.001131 " stroke="#74583e" stroke-width="4" stroke-opacity="1" stroke-miterlimit="4" />
        <path stroke-linecap="butt" transform="matrix(0.000000000000000047, 0.761502, -0.75, 0.000000000000000046, 76.498919, 0.0010756)" fill="none" stroke-linejoin="miter" d="M -0.00141247 1.998559 L 29.550595 1.998559 " stroke="#74583e" stroke-width="4" stroke-opacity="1" stroke-miterlimit="4" />
        <path stroke-linecap="butt" transform="matrix(0.752744, 0, 0, 0.75, 127.575918, 73.499998)" fill="none" stroke-linejoin="miter" d="M -0.00225715 2.000003 L 29.898749 2.000003 " stroke="#74583e" stroke-width="4" stroke-opacity="1" stroke-miterlimit="4" />
        <path stroke-linecap="butt" transform="matrix(0.752744, 0, 0, 0.75, 0.00000125, 73.499998)" fill="none" stroke-linejoin="miter" d="M -0.00000166059 2.000003 L 29.901005 2.000003 " stroke="#74583e" stroke-width="4" stroke-opacity="1" stroke-miterlimit="4" />
        <path stroke-linecap="butt" transform="matrix(0.534847, 0.534847, -0.53033, 0.53033, 17.120944, 15.000911)" fill="none" stroke-linejoin="miter" d="M -0.000711704 2.002469 L 36.692003 2.002469 " stroke="#74583e" stroke-width="4" stroke-opacity="1" stroke-miterlimit="4" />
        <path stroke-linecap="butt" transform="matrix(0.534614, 0.534614, -0.53033, 0.53033, 115.541311, 113.421279)" fill="none" stroke-linejoin="miter" d="M -0.00154466 1.998785 L 38.690959 2.002468 " stroke="#74583e" stroke-width="4" stroke-opacity="1" stroke-miterlimit="4" />
        <path stroke-linecap="butt" transform="matrix(-0.521001, 0.535745, -0.537677, -0.52288, 36.540299, 114.998594)" fill="none" stroke-linejoin="miter" d="M 0.000373737 1.999827 L 39.146184 1.998915 " stroke="#74583e" stroke-width="4" stroke-opacity="1" stroke-miterlimit="4" />
        <path stroke-linecap="butt" transform="matrix(-0.521001, 0.535745, -0.537677, -0.52288, 133.360263, 15.532475)" fill="none" stroke-linejoin="miter" d="M 0.00127179 1.998308 L 39.150726 2.00113 " stroke="#74583e" stroke-width="4" stroke-opacity="1" stroke-miterlimit="4" />
    </g>
</svg>